<svg width="165" height="37" viewBox="0 0 165 37" fill="none" xmlns="http://www.w3.org/2000/svg">
<path d="M151.609 23.5547C151.609 24.0839 151.609 25.4485 151.535 26.7729C151.459 27.7198 151.236 28.3263 150.563 28.478C150.264 28.5522 149.891 28.6296 149.591 28.6296C149.405 28.6296 149.328 28.7812 149.328 28.8957C149.328 29.0845 149.478 29.1618 149.854 29.1618C150.826 29.1618 152.92 29.0473 153.07 29.0473C153.256 29.0473 155.39 29.1618 157.224 29.1618C157.56 29.1618 157.746 29.0473 157.746 28.8957C157.746 28.7812 157.67 28.6296 157.484 28.6296C157.184 28.6296 156.435 28.5522 155.986 28.478C155.014 28.3263 154.791 27.7198 154.714 26.7729C154.601 25.4485 154.601 24.0839 154.601 23.5547L154.601 20.7914C154.601 19.73 154.451 18.7089 155.014 17.5732C155.686 16.2086 160.326 8.63653 161.411 7.34925C162.124 6.47663 162.42 6.13624 163.056 5.75872C163.582 5.45547 164.217 5.34097 164.59 5.34097C164.853 5.34097 165.003 5.15221 165.003 5.00059C165.003 4.88609 164.817 4.81183 164.59 4.81183C163.955 4.81183 161.598 4.88609 161.372 4.88609C161.109 4.88609 159.95 4.81183 159.088 4.81183C158.752 4.81183 158.566 4.88609 158.566 5.00059C158.566 5.15221 158.752 5.30384 159.052 5.37811C159.425 5.4926 159.574 5.75563 159.574 6.21051C159.574 6.62825 159.425 7.1574 159.015 7.8784C158.416 8.93979 154.302 15.8311 153.629 17.1957L147.641 7.1574C147.418 6.73965 147.192 6.36213 147.192 5.90725C147.192 5.64423 147.342 5.4895 147.601 5.37811C147.901 5.26361 148.124 5.14912 148.124 5.03772C148.124 4.88609 148.051 4.81183 147.675 4.81183C146.403 4.81183 145.055 4.88609 144.832 4.88609C144.682 4.88609 142.212 4.81183 141.577 4.81183C141.277 4.81183 141.164 4.88609 141.164 5.04081C141.164 5.19244 141.314 5.34407 141.5 5.34407C141.763 5.34407 142.399 5.49569 142.885 5.79895C143.484 6.21669 144.27 6.9346 145.055 8.14761C146.183 9.84645 150.634 17.0039 150.896 17.4959C151.382 18.4056 151.609 19.0493 151.609 20.7914L151.609 23.5547ZM130.059 6.28477L134.173 6.36213C137.316 6.43949 138.025 7.1574 138.138 8.14142L138.174 8.48181C138.211 8.93669 138.288 9.04809 138.437 9.04809C138.587 9.04809 138.737 8.89646 138.737 8.63034C138.737 8.25282 138.85 5.94129 138.85 4.95726C138.85 4.7685 138.85 4.57974 138.7 4.57974C138.55 4.57974 138.251 4.65401 137.765 4.73137C137.242 4.80873 136.493 4.883 135.408 4.883L122.989 4.883C122.616 4.883 121.341 4.84586 120.406 4.73137C119.507 4.61688 119.171 4.35385 118.948 4.35385C118.835 4.35385 118.685 4.7716 118.612 4.96036C118.575 5.22648 117.899 8.10429 117.899 8.44468C117.899 8.63344 118.049 8.7108 118.123 8.7108C118.272 8.7108 118.382 8.67366 118.459 8.40754C118.572 8.17856 118.609 7.95266 118.985 7.38329C119.471 6.62516 120.256 6.39926 122.313 6.35904L127.063 6.28168L127.063 19.8012C127.063 22.908 127.063 25.4454 126.914 26.7698C126.801 27.7167 126.614 28.3604 125.942 28.512C125.642 28.5894 125.269 28.6636 124.97 28.6636C124.783 28.6636 124.707 28.7781 124.707 28.8895C124.707 29.0783 124.857 29.1556 125.229 29.1556C126.201 29.1556 128.485 29.0412 128.635 29.0412C128.821 29.0412 130.915 29.1556 132.712 29.1556C133.085 29.1556 133.235 29.0412 133.235 28.8895C133.235 28.775 133.198 28.6234 132.972 28.6234C132.672 28.6234 131.927 28.5491 131.477 28.4718C130.466 28.3202 130.319 27.7136 130.206 26.7668C130.056 25.4423 130.056 22.9049 130.056 19.7981L130.056 6.28477L130.059 6.28477ZM112.147 14.126C112.147 9.12854 112.147 8.21878 112.183 7.19453C112.257 6.05888 112.446 5.604 113.342 5.41524C113.715 5.33788 113.941 5.33788 114.164 5.33788C114.277 5.33788 114.427 5.18625 114.427 5.07176C114.427 4.883 114.277 4.80564 113.904 4.80564C112.896 4.80564 110.762 4.8799 110.612 4.8799C110.426 4.8799 108.369 4.80564 107.284 4.80564C106.911 4.80564 106.761 4.8799 106.761 5.07176C106.761 5.18625 106.874 5.33788 107.024 5.33788C107.247 5.33788 107.66 5.37501 108.033 5.45237C108.742 5.604 109.005 6.09601 109.081 7.19453C109.154 8.21878 109.154 9.12545 109.154 14.126L109.154 19.8074C109.154 22.9111 109.118 25.4485 108.968 26.776C108.855 27.7229 108.745 28.3294 108.109 28.4811C107.809 28.5553 107.397 28.6327 107.1 28.6327C106.914 28.6327 106.837 28.7843 106.837 28.8988C106.837 29.0876 107.024 29.1649 107.36 29.1649C108.369 29.1649 110.429 29.0504 110.615 29.0504C110.765 29.0504 112.899 29.1649 114.73 29.1649C115.103 29.1649 115.252 29.0504 115.252 28.8988C115.252 28.7843 115.179 28.6327 114.99 28.6327C114.69 28.6327 113.981 28.5584 113.495 28.4811C112.523 28.3294 112.41 27.7229 112.297 26.776C112.147 25.4516 112.147 22.9142 112.147 19.8074L112.147 14.126ZM92.5106 14.126C92.5106 9.12854 92.5106 8.21878 92.5473 7.19453C92.6237 6.05888 92.8102 5.56686 93.7822 5.3781C94.1551 5.34097 94.6412 5.30074 94.8673 5.30074C94.9804 5.30074 95.1302 5.18625 95.1302 5.07485C95.1302 4.88609 94.9438 4.80873 94.6075 4.80873C93.5988 4.80873 91.129 4.883 90.9792 4.883C90.7928 4.883 88.7356 4.80873 87.2379 4.80873C86.8649 4.80873 86.7152 4.883 86.7152 5.07485C86.7152 5.18934 86.8649 5.34097 86.978 5.34097C87.2776 5.34097 87.84 5.3781 88.0998 5.41833C89.185 5.56996 89.3714 6.0991 89.4478 7.19762C89.5212 8.21878 89.5212 9.12854 89.5212 14.1291L89.5212 19.8105C89.5212 22.9142 89.5212 25.4516 89.3347 26.7791C89.185 27.726 89.1085 28.3325 88.4758 28.4842C88.1763 28.5584 87.7667 28.6358 87.4671 28.6358C87.2806 28.6358 87.2042 28.7874 87.2042 28.9019C87.2042 29.0907 87.3907 29.168 87.73 29.168C88.2527 29.168 88.9649 29.1309 89.6374 29.0938C90.2731 29.0566 90.8325 29.0566 90.9854 29.0566C91.9574 29.0566 93.0792 29.0938 94.577 29.1309C96.1114 29.2083 97.9424 29.2454 100.299 29.2454C102.057 29.2454 102.17 29.1309 102.393 28.3728C102.656 27.4259 102.879 25.4949 102.879 25.1546C102.879 24.8142 102.806 24.6625 102.656 24.6625C102.469 24.6625 102.356 24.8513 102.32 25.0803C102.206 25.7239 101.947 26.4047 101.534 26.8998C100.748 27.8467 99.2904 27.8838 97.5695 27.8838C94.9896 27.8838 93.715 27.6579 93.1923 27.1257C92.5932 26.5563 92.5198 24.6254 92.5198 19.8909L92.5198 14.126L92.5106 14.126ZM74.7818 18.8605C74.9316 18.8605 74.9316 18.7862 74.8949 18.6315L71.6396 9.80932C71.4531 9.3173 71.2667 9.3173 71.0771 9.80932L68.0082 18.6315C67.9715 18.7831 68.0082 18.8605 68.1213 18.8605L74.7818 18.8605ZM71.1169 5.45237C71.5295 4.39098 71.6793 4.20222 71.9024 4.20222C72.2387 4.20222 72.3518 4.6571 72.688 5.37501C73.2871 6.73655 78.5599 20.0302 80.5804 24.9163C81.7786 27.7941 82.6742 28.2118 83.3864 28.4377C83.8724 28.5894 84.3585 28.6265 84.6947 28.6265C84.8811 28.6265 85.1073 28.7039 85.1073 28.8926C85.1073 29.0814 84.7344 29.1587 84.3584 29.1587C83.8724 29.1587 81.4393 29.1587 79.159 29.0845C78.5232 29.0473 78.0005 29.0473 78.0005 28.8555C78.0005 28.7039 78.0739 28.7039 78.2237 28.6296C78.4101 28.5522 78.7464 28.2892 78.5232 27.7601L75.5674 20.3737C75.4941 20.222 75.4543 20.1849 75.2679 20.1849L67.675 20.1849C67.5253 20.1849 67.4122 20.2623 67.3388 20.451L65.4681 25.6002C65.1686 26.3954 64.9821 27.1907 64.9821 27.7601C64.9821 28.4037 65.5445 28.6296 66.1039 28.6296L66.4035 28.6296C66.6663 28.6296 66.7397 28.7441 66.7397 28.8957C66.7397 29.0845 66.5532 29.1618 66.2537 29.1618C65.4681 29.1618 63.6738 29.0473 63.2979 29.0473C62.9616 29.0473 61.3141 29.1618 59.9691 29.1618C59.5565 29.1618 59.3333 29.0876 59.3333 28.8957C59.3333 28.7441 59.4831 28.6296 59.6329 28.6296C59.856 28.6296 60.3451 28.5925 60.6049 28.5522C62.1027 28.3635 62.7385 27.2278 63.3743 25.5971L71.1169 5.45237ZM36.885 18.8605C36.885 23.5578 38.1566 25.792 39.7644 27.3052C42.0845 29.5022 45.5263 29.5765 46.6114 29.5765C48.5555 29.5765 51.1017 29.3104 53.4951 27.2278C56.1146 24.9565 56.5609 21.0544 56.5609 17.5701L56.5609 14.126C56.5609 9.12854 56.5242 8.21878 56.5976 7.19453C56.671 6.13314 56.8605 5.60399 57.7561 5.41523C58.1687 5.33787 58.3552 5.33787 58.5783 5.33787C58.7281 5.33787 58.8412 5.18625 58.8412 5.07175C58.8412 4.88299 58.6914 4.80563 58.3185 4.80563C57.3465 4.80563 55.7754 4.8799 55.5492 4.8799C55.3627 4.8799 53.4553 4.80254 51.9973 4.80254C51.6213 4.80254 51.4746 4.8799 51.4746 5.06866C51.4746 5.18315 51.5877 5.33478 51.7375 5.33478C52.037 5.33478 52.5995 5.37191 52.8593 5.41214C53.9444 5.56377 54.1309 6.17027 54.1675 7.19143C54.2042 8.21259 54.244 9.12235 54.244 14.1229L54.244 18.1766C54.244 21.4722 53.9077 24.121 52.3733 25.9777C51.2515 27.3392 49.3074 28.249 47.2869 28.249C45.4162 28.249 43.9949 27.9829 42.3871 26.5068C40.9657 25.2195 39.9539 23.2886 39.9539 18.6284L39.9539 14.126C39.9539 9.12854 39.9539 8.21878 40.0273 7.19453C40.1007 6.13314 40.2902 5.56686 41.1491 5.41523C41.5618 5.33787 41.7482 5.33787 41.9714 5.33787C42.1211 5.33787 42.2709 5.18625 42.2709 5.07175C42.2709 4.88299 42.0844 4.80563 41.7085 4.80563C40.7364 4.80563 38.6793 4.8799 38.3798 4.8799C38.0802 4.8799 36.0964 4.80254 34.6017 4.80254C34.2288 4.80254 34.079 4.8799 34.079 5.06866C34.079 5.18315 34.2288 5.33478 34.3419 5.33478C34.6414 5.33478 35.2038 5.37191 35.4637 5.41214C36.5488 5.56377 36.7352 6.17027 36.8117 7.19143C36.885 8.21259 36.885 9.12235 36.885 14.1229L36.885 18.8605ZM15.5249 28.2521C18.8934 28.2521 25.8504 26.284 25.8504 15.2617C25.8504 6.17337 20.3881 1.28727 14.4795 1.28727C8.23164 1.28727 3.5549 5.45237 3.5549 13.7454C3.5549 22.5707 8.791 28.2521 15.5249 28.2521ZM20.5012 28.4037C19.1562 29.1247 16.61 29.691 14.6293 29.691C4.2671 29.691 0.00303555 21.6238 0.00303585 14.8068C-1.56379e-05 8.67366 4.41689 -7.01944e-06 14.7393 -6.56824e-06C23.1574 -6.20027e-06 29.442 5.41523 29.442 14.2003C29.442 20.8657 25.2879 25.2969 22.8212 26.9246L30.4904 30.938C38.6824 35.2176 44.3678 35.4064 46.2385 35.4064C48.1092 35.4064 51.0283 34.9886 53.6082 33.9303C53.8313 33.8561 54.0208 33.7787 54.1309 33.7787C54.2806 33.7787 54.354 33.8932 54.354 34.0077C54.354 34.1593 54.2806 34.2738 54.0544 34.3852C51.9209 35.3692 47.7332 36.9969 42.1945 36.9969C37.6675 36.9969 32.841 35.3321 26.7827 31.9221L20.5012 28.4037Z" fill="#141414"/>
</svg>
